<svg width="36" height="36" viewBox="0 0 36 36" fill="none" xmlns="http://www.w3.org/2000/svg">
<path d="M10.8 25.2C11.79 25.2 12.6375 24.8475 13.3425 24.1425C14.0475 23.4375 14.4 22.59 14.4 21.6C14.4 20.61 14.0475 19.7625 13.3425 19.0575C12.6375 18.3525 11.79 18 10.8 18C9.81 18 8.9625 18.3525 8.2575 19.0575C7.5525 19.7625 7.2 20.61 7.2 21.6C7.2 22.59 7.5525 23.4375 8.2575 24.1425C8.9625 24.8475 9.81 25.2 10.8 25.2ZM27.7425 24.1425C28.4475 23.4375 28.8 22.59 28.8 21.6C28.8 20.61 28.4475 19.7625 27.7425 19.0575C27.0375 18.3525 26.19 18 25.2 18C24.21 18 23.3625 18.3525 22.6575 19.0575C21.9525 19.7625 21.6 20.61 21.6 21.6C21.6 22.59 21.9525 23.4375 22.6575 24.1425C23.3625 24.8475 24.21 25.2 25.2 25.2C26.19 25.2 27.0375 24.8475 27.7425 24.1425ZM20.5425 13.3425C21.2475 12.6375 21.6 11.79 21.6 10.8C21.6 9.81 21.2475 8.9625 20.5425 8.2575C19.8375 7.5525 18.99 7.2 18 7.2C17.01 7.2 16.1625 7.5525 15.4575 8.2575C14.7525 8.9625 14.4 9.81 14.4 10.8C14.4 11.79 14.7525 12.6375 15.4575 13.3425C16.1625 14.0475 17.01 14.4 18 14.4C18.99 14.4 19.8375 14.0475 20.5425 13.3425ZM18 36C15.51 36 13.17 35.5275 10.98 34.5825C8.79 33.6375 6.885 32.355 5.265 30.735C3.645 29.115 2.3625 27.21 1.4175 25.02C0.4725 22.83 0 20.49 0 18C0 15.51 0.4725 13.17 1.4175 10.98C2.3625 8.79 3.645 6.885 5.265 5.265C6.885 3.645 8.79 2.3625 10.98 1.4175C13.17 0.4725 15.51 0 18 0C20.49 0 22.83 0.4725 25.02 1.4175C27.21 2.3625 29.115 3.645 30.735 5.265C32.355 6.885 33.6375 8.79 34.5825 10.98C35.5275 13.17 36 15.51 36 18C36 20.49 35.5275 22.83 34.5825 25.02C33.6375 27.21 32.355 29.115 30.735 30.735C29.115 32.355 27.21 33.6375 25.02 34.5825C22.83 35.5275 20.49 36 18 36Z" fill="#000080"/>
</svg>
